<svg id="visual" viewBox="0 0 960 540" width="960" height="540" xmlns="http://www.w3.org/2000/svg" xmlns:xlink="http://www.w3.org/1999/xlink" version="1.1"><path d="M0 28L137 28L274 39L411 39L549 23L686 33L823 39L960 28L960 0L823 0L686 0L549 0L411 0L274 0L137 0L0 0Z" fill="#24af7c"></path><path d="M0 55L137 55L274 66L411 66L549 50L686 55L823 60L960 60L960 26L823 37L686 31L549 21L411 37L274 37L137 26L0 26Z" fill="#009982"></path><path d="M0 71L137 71L274 93L411 82L549 77L686 87L823 82L960 77L960 58L823 58L686 53L549 48L411 64L274 64L137 53L0 53Z" fill="#00837f"></path><path d="M0 114L137 109L274 136L411 109L549 104L686 114L823 109L960 114L960 75L823 80L686 85L549 75L411 80L274 91L137 69L0 69Z" fill="#206b72"></path><path d="M0 147L137 152L274 163L411 136L549 152L686 147L823 147L960 168L960 112L823 107L686 112L549 102L411 107L274 134L137 107L0 112Z" fill="#32555e"></path><path d="M0 228L137 212L274 244L411 217L549 206L686 195L823 201L960 239L960 166L823 145L686 145L549 150L411 134L274 161L137 150L0 145Z" fill="#364c54"></path><path d="M0 303L137 314L274 368L411 325L549 325L686 276L823 325L960 325L960 237L823 199L686 193L549 204L411 215L274 242L137 210L0 226Z" fill="#364c54"></path><path d="M0 422L137 433L274 444L411 433L549 433L686 417L823 411L960 433L960 323L823 323L686 274L549 323L411 323L274 366L137 312L0 301Z" fill="#32555e"></path><path d="M0 444L137 460L274 460L411 460L549 449L686 433L823 433L960 455L960 431L823 409L686 415L549 431L411 431L274 442L137 431L0 420Z" fill="#206b72"></path><path d="M0 460L137 476L274 476L411 482L549 471L686 449L823 449L960 471L960 453L823 431L686 431L549 447L411 458L274 458L137 458L0 442Z" fill="#00837f"></path><path d="M0 476L137 498L274 492L411 503L549 498L686 476L823 476L960 492L960 469L823 447L686 447L549 469L411 480L274 474L137 474L0 458Z" fill="#009982"></path><path d="M0 541L137 541L274 541L411 541L549 541L686 541L823 541L960 541L960 490L823 474L686 474L549 496L411 501L274 490L137 496L0 474Z" fill="#24af7c"></path></svg>